<?xml version="1.0" standalone="no"?>
<!DOCTYPE svg PUBLIC "-//W3C//DTD SVG 20010904//EN"
 "http://www.w3.org/TR/2001/REC-SVG-20010904/DTD/svg10.dtd">
<svg version="1.0" xmlns="http://www.w3.org/2000/svg"
 width="600.000000pt" height="609.000000pt" viewBox="0 0 600.000000 609.000000"
 preserveAspectRatio="xMidYMid meet">
<metadata>
Created by potrace 1.16, written by Peter Selinger 2001-2019
</metadata>
<g transform="translate(0.000000,609.000000) scale(0.100000,-0.100000)"
fill="#000000" stroke="none">
<path d="M3016 5419 c-3 -8 -16 -52 -30 -99 l-25 -85 -158 0 c-127 -1 -178 -5
-262 -24 -118 -26 -257 -74 -349 -120 -34 -17 -66 -31 -72 -31 -5 0 -61 48
-122 107 l-113 108 -10 -162 -10 -162 -50 -37 c-140 -104 -298 -253 -325 -304
-27 -53 -67 -187 -87 -291 -14 -75 -17 -146 -17 -349 1 -233 13 -398 26 -360
3 8 24 69 48 135 52 149 170 393 245 505 279 418 676 701 1210 860 l99 30 99
-66 c54 -36 100 -64 102 -62 1 2 10 27 19 56 10 29 26 57 36 62 29 16 236 12
341 -6 84 -14 283 -68 333 -89 38 -17 6 14 -53 50 -136 82 -405 145 -621 145
-27 0 -50 3 -52 8 -2 4 -47 49 -100 101 -66 64 -99 90 -102 80z"/>
<path d="M3740 4763 c-151 -96 -306 -194 -344 -218 l-70 -45 -83 89 c-82 89
-206 191 -231 191 -18 0 -125 -167 -182 -285 -71 -144 -97 -232 -109 -365 -20
-209 -23 -196 69 -302 l80 -93 -54 -3 c-36 -2 -70 4 -105 18 -28 11 -58 20
-66 20 -8 0 -76 -38 -151 -85 -74 -47 -174 -106 -221 -130 -76 -40 -128 -78
-252 -183 -33 -28 -34 -30 -21 -62 7 -18 51 -70 97 -116 149 -149 369 -289
559 -355 65 -23 157 -59 203 -80 78 -36 90 -39 177 -39 l92 0 68 93 c37 50 70
96 74 100 4 5 20 -7 35 -27 l27 -36 -56 -73 -56 -73 0 -126 0 -126 -56 -78
c-152 -211 -348 -415 -493 -512 -120 -80 -274 -129 -312 -99 -66 51 -86 249
-54 555 28 266 37 304 92 373 26 34 56 71 65 84 14 17 16 31 10 66 l-7 43
-140 83 c-77 45 -151 83 -165 83 -14 0 -72 11 -130 24 -271 61 -400 155 -357
258 38 91 241 196 553 287 59 17 329 154 357 180 4 4 -40 39 -97 77 l-106 69
0 211 c0 249 0 250 82 248 37 -1 84 -13 145 -38 50 -20 93 -36 97 -36 4 0 10
10 15 23 5 12 21 48 35 79 l25 57 -293 96 c-162 52 -298 95 -303 95 -5 0 -17
-134 -27 -297 -9 -164 -20 -332 -23 -374 l-6 -77 92 -53 c50 -29 91 -56 91
-59 0 -4 -13 -19 -29 -34 l-29 -28 -95 17 -95 17 -104 -47 c-57 -26 -164 -76
-238 -110 -114 -53 -540 -249 -810 -372 -86 -40 -89 -34 60 -91 58 -22 300
-115 538 -206 239 -91 438 -166 444 -166 5 0 29 14 53 31 42 30 45 31 119 24
51 -5 75 -11 72 -19 -2 -6 -13 -35 -22 -64 -16 -46 -27 -60 -75 -94 -56 -39
-57 -41 -63 -96 -3 -31 -20 -223 -37 -427 -17 -203 -52 -621 -78 -927 -25
-307 -44 -558 -41 -558 7 0 142 123 720 655 107 99 215 198 240 221 25 23 110
101 190 175 80 74 208 190 283 259 l137 124 0 156 c0 155 0 155 31 208 35 61
36 61 112 2 41 -32 62 -61 101 -135 l50 -95 720 -240 c396 -132 721 -238 723
-236 2 2 -59 140 -135 307 -76 167 -210 460 -296 650 l-158 345 -84 53 c-46
29 -86 56 -89 61 -3 5 11 20 32 34 51 35 121 35 186 0 l49 -25 84 78 c46 43
214 202 372 353 269 257 287 275 263 282 -14 4 -127 17 -251 28 -314 28 -531
49 -699 66 -216 21 -224 21 -255 -21 -25 -32 -31 -35 -82 -35 l-54 0 0 55 c0
53 1 56 40 81 22 15 40 33 40 40 0 24 -121 779 -128 800 -6 19 -31 5 -282
-153z m-559 -273 c121 -130 228 -274 285 -383 l46 -89 -39 -46 c-71 -84 -71
-85 -75 -230 -3 -126 -2 -132 17 -132 31 0 169 64 240 110 l65 42 52 -38 c121
-87 214 -175 231 -218 7 -18 -5 -34 -76 -102 -196 -190 -419 -314 -566 -314
-20 0 -31 7 -39 24 -17 38 -69 93 -101 106 -26 10 -37 9 -83 -13 -62 -28 -137
-93 -168 -143 l-22 -35 -62 6 c-410 40 -694 131 -771 248 -16 25 -16 27 7 58
36 49 169 151 271 207 100 56 275 132 302 132 10 0 44 -16 76 -36 75 -45 158
-75 232 -81 53 -5 57 -4 57 15 0 37 -37 139 -73 204 -34 60 -129 168 -148 168
-14 0 -11 118 6 211 24 138 80 285 162 427 l25 42 29 -21 c16 -11 70 -65 120
-119z m636 -61 c66 -41 109 -178 101 -319 -3 -58 -7 -73 -26 -85 -27 -20 -67
-88 -89 -151 -9 -27 -17 -51 -19 -53 -2 -2 -15 6 -30 18 -36 28 -76 27 -113
-5 -17 -14 -31 -22 -31 -17 -15 287 -20 307 -114 443 l-55 80 27 18 c122 87
274 117 349 71z m761 -615 c84 -17 167 -57 184 -87 8 -15 2 -30 -29 -75 -55
-80 -181 -220 -230 -255 l-42 -30 -148 2 -148 2 -48 -110 c-26 -60 -47 -111
-47 -114 0 -2 35 -21 78 -42 100 -49 206 -154 250 -246 42 -88 66 -214 59
-307 -3 -41 -7 -76 -10 -78 -2 -2 -46 -8 -98 -14 -155 -16 -355 16 -467 75
-54 28 -303 264 -286 271 48 20 187 109 243 156 104 85 146 144 180 251 33
106 67 185 104 244 l27 42 -101 116 -100 115 50 0 c61 0 135 27 193 69 l42 31
133 0 c83 0 163 -6 211 -16z"/>
<path d="M3149 3710 c-21 -57 -31 -100 -25 -100 6 1 38 7 71 15 33 8 82 15
108 15 l49 0 -77 85 c-43 47 -80 85 -84 85 -3 0 -22 -45 -42 -100z"/>
<path d="M3438 3538 c-9 -19 -52 -73 -96 -120 -43 -48 -82 -95 -84 -106 -8
-29 6 -46 34 -39 31 8 173 126 187 155 17 35 13 97 -7 122 l-18 22 -16 -34z"/>
<path d="M2983 3485 c-20 -8 -39 -28 -50 -49 -16 -34 -16 -36 11 -71 42 -55
99 -86 170 -93 l60 -5 -27 33 c-32 37 -68 106 -86 163 -14 41 -27 45 -78 22z"/>
<path d="M2890 4843 c-157 -16 -370 -76 -453 -126 l-38 -23 77 -31 78 -30 93
44 c51 24 132 54 181 65 67 17 95 28 122 54 l35 32 54 -24 c51 -23 64 -24 210
-22 l156 3 -38 18 c-68 32 -171 47 -310 45 -73 0 -148 -3 -167 -5z"/>
<path d="M1297 4438 c-84 -113 -177 -264 -199 -325 -7 -18 -19 -33 -28 -33 -8
0 -81 7 -163 16 -81 9 -150 14 -153 11 -3 -3 49 -70 115 -150 l121 -144 -26
-64 c-14 -35 -28 -87 -31 -117 l-6 -53 -93 -65 c-52 -36 -94 -69 -94 -74 0 -4
15 -11 33 -14 17 -3 58 -21 90 -39 l58 -32 190 95 189 94 0 121 c0 309 46 789
82 858 5 10 7 21 5 23 -3 3 -43 -46 -90 -108z"/>
<path d="M2002 4431 c-188 -188 -330 -417 -412 -664 -31 -90 -36 -121 -22
-115 5 2 39 17 75 33 62 28 67 33 88 85 38 93 134 281 181 355 25 39 73 103
107 143 l62 73 -3 82 -3 82 -73 -74z"/>
<path d="M907 3053 c4 -43 7 -88 7 -101 1 -21 -19 -32 -174 -98 -96 -41 -176
-76 -177 -78 -2 -1 149 -64 413 -171 27 -11 32 -19 39 -61 10 -70 33 -134 62
-172 79 -105 332 -231 692 -346 142 -45 176 -50 133 -20 -31 21 -141 165 -203
264 -72 116 -176 337 -239 506 -51 136 -54 141 -89 154 -30 11 -310 130 -438
186 l-33 14 7 -77z"/>
<path d="M5152 2936 c-40 -123 -132 -289 -214 -381 -35 -40 -36 -34 33 -178
l38 -78 14 28 c86 171 165 494 155 634 l-3 46 -23 -71z"/>
<path d="M1555 2829 c29 -139 103 -309 193 -443 50 -75 158 -209 173 -214 5
-2 9 44 9 106 l0 110 -38 46 c-53 64 -116 186 -150 291 l-29 89 -50 17 c-28 9
-65 20 -82 24 l-33 7 7 -33z"/>
<path d="M1211 2148 c52 -103 120 -191 231 -301 l119 -117 -61 -221 c-33 -122
-58 -224 -56 -226 3 -3 79 52 170 121 91 69 168 126 172 126 4 0 22 -11 40
-25 18 -14 37 -25 43 -25 7 0 11 40 11 113 0 63 3 155 6 204 l7 91 -59 12
c-32 6 -88 21 -124 33 -66 22 -344 156 -458 221 l-62 36 21 -42z"/>
<path d="M4040 2025 c-255 -154 -553 -255 -750 -255 l-69 0 -78 -75 -78 -74
63 -1 c301 -1 711 120 927 275 71 50 155 124 155 134 0 4 -17 13 -37 20 -21 7
-42 14 -48 16 -5 3 -44 -16 -85 -40z"/>
<path d="M4356 1874 l-69 -74 -84 46 c-46 25 -87 43 -90 40 -3 -3 -12 -40 -19
-83 -22 -129 -17 -121 -100 -159 -119 -54 -267 -102 -398 -130 -98 -21 -159
-26 -321 -31 -114 -3 -232 0 -275 6 l-75 10 -163 -167 c-178 -183 -177 -180
-72 -181 30 -1 60 -5 67 -9 6 -4 25 -38 43 -75 l31 -67 57 66 57 66 149 -6
c82 -3 174 -6 205 -6 l56 0 115 -101 c63 -56 137 -121 164 -146 27 -24 50 -43
51 -41 2 2 15 88 30 193 14 104 27 190 28 191 1 0 49 18 107 38 211 76 442
199 603 320 115 86 285 265 266 279 -11 9 -269 97 -280 96 -8 0 -45 -34 -83
-75z"/>
</g>
</svg>
